<?xml version="1.0" encoding="utf-8"?>
<!-- Generator: Adobe Illustrator 23.1.1, SVG Export Plug-In . SVG Version: 6.00 Build 0)  -->
<svg version="1.1" id="Layer_1" xmlns="http://www.w3.org/2000/svg" xmlns:xlink="http://www.w3.org/1999/xlink" x="0px" y="0px"
	 viewBox="0 0 93.81 23.86" style="enable-background:new 0 0 93.81 23.86;" xml:space="preserve">
<style type="text/css">
	.st0{fill:#FFFFFF;}
	.st1{fill:#FFCE4B;}
</style>
<g>
	<path class="st0" d="M16.38,4.56c4.05,0,7.48,2.95,7.48,7.52c0,4.55-3.44,7.5-7.48,7.5c-4.07,0-7.5-2.95-7.5-7.5
		C8.88,7.51,12.31,4.56,16.38,4.56z M16.38,16.41c1.99,0,4.15-1.34,4.15-4.35c0-3.01-2.16-4.37-4.15-4.37
		c-2.01,0-4.17,1.36-4.17,4.37C12.21,15.07,14.36,16.41,16.38,16.41z"/>
	<path class="st0" d="M29.05,19.28h-3.09V9.18h2.99v1.16c0.55-0.96,1.79-1.42,2.83-1.42c2.54,0,3.68,1.81,3.68,4.03v6.34h-3.09
		v-5.82c0-1-0.53-1.75-1.65-1.75c-1.02,0-1.67,0.75-1.67,1.77V19.28z"/>
	<path class="st0" d="M45.77,12.1l4.68,7.18h-3.9l-2.85-4.68l-2.83,4.68h-3.78l4.66-7.22l-4.66-7.2h3.86l2.85,4.68l2.85-4.68h3.76
		L45.77,12.1z"/>
	<path class="st0" d="M53.72,4.27c1.02,0,1.83,0.81,1.83,1.81c0,1-0.81,1.81-1.83,1.81c-0.98,0-1.79-0.81-1.79-1.81
		C51.93,5.09,52.74,4.27,53.72,4.27z M52.19,19.28V9.18h3.09v10.11H52.19z"/>
	<path class="st0" d="M60.33,14.24c0,1.61,1.08,2.5,2.36,2.5c1.2,0,1.87-0.75,2.09-1.5l2.73,0.83c-0.45,1.77-2.11,3.52-4.82,3.52
		c-3.01,0-5.43-2.22-5.43-5.35c0-3.15,2.36-5.37,5.33-5.37c2.79,0,4.41,1.71,4.86,3.52l-2.76,0.83c-0.22-0.77-0.83-1.5-2.03-1.5
		C61.36,11.72,60.33,12.61,60.33,14.24z"/>
	<path class="st0" d="M79.3,14.22c0,3.13-2.34,5.37-5.37,5.37c-3.01,0-5.37-2.24-5.37-5.37s2.36-5.35,5.37-5.35
		C76.96,8.87,79.3,11.09,79.3,14.22z M76.21,14.22c0-1.71-1.1-2.5-2.28-2.5c-1.16,0-2.28,0.79-2.28,2.5c0,1.69,1.12,2.52,2.28,2.52
		C75.11,16.74,76.21,15.93,76.21,14.22z"/>
	<path class="st1" d="M82.84,15.29c1.14,0,2.09,0.94,2.09,2.07c0,1.12-0.96,2.09-2.09,2.09s-2.07-0.98-2.07-2.09
		C80.77,16.23,81.7,15.29,82.84,15.29z"/>
</g>
</svg>
