<?xml version="1.0" encoding="utf-8"?>
<!-- Generator: Adobe Illustrator 23.1.1, SVG Export Plug-In . SVG Version: 6.00 Build 0)  -->
<svg version="1.1" id="Layer_1" xmlns="http://www.w3.org/2000/svg" xmlns:xlink="http://www.w3.org/1999/xlink" x="0px" y="0px"
	 viewBox="0 0 24.81 23.86" style="enable-background:new 0 0 24.81 23.86;" xml:space="preserve">
<style type="text/css">
	.st0{fill:#FED56F;}
</style>
<g>
	<path class="st0" d="M12.83,13.75c-0.11,0.02-0.21,0.04-0.31,0.04C12.62,13.79,12.72,13.76,12.83,13.75z"/>
	<path class="st0" d="M14.33,11.62c-0.01-0.06-0.01-0.13-0.02-0.19c-0.16-0.62-0.67-1.12-1.29-1.29c-0.06-0.02-0.12-0.01-0.19-0.02
		C13.6,10.25,14.2,10.85,14.33,11.62z"/>
	<path class="st0" d="M14.37,11.93c0,0.1-0.02,0.21-0.04,0.31C14.35,12.14,14.37,12.04,14.37,11.93z"/>
	<path class="st0" d="M10.7,12.24c0.01,0.07,0.01,0.13,0.03,0.19c0.16,0.62,0.67,1.12,1.29,1.29c0.06,0.02,0.13,0.01,0.19,0.02
		C11.43,13.61,10.83,13.01,10.7,12.24z"/>
	<path class="st0" d="M10.66,11.93c0-0.1,0.02-0.21,0.04-0.31C10.68,11.72,10.66,11.82,10.66,11.93z"/>
	<path class="st0" d="M12.2,10.11c0.1-0.02,0.21-0.04,0.31-0.04C12.41,10.07,12.3,10.1,12.2,10.11z"/>
	<path class="st0" d="M12.51,19.98c-4.36,0-7.91-3.48-8.04-7.81H3.04c0.13,5.12,4.32,9.25,9.47,9.25c2.84,0,5.5-1.25,7.31-3.44
		l-1.11-0.92C17.18,18.91,14.92,19.98,12.51,19.98z"/>
	<path class="st0" d="M19.68,15.6l1.28,0.66c0.33-0.64,0.58-1.32,0.76-2.01l-1.39-0.35C20.17,14.48,19.96,15.05,19.68,15.6z"/>
	<path class="st0" d="M19.83,8.57c0.24,0.51,0.42,1.05,0.54,1.6l1.4-0.31c-0.14-0.65-0.36-1.28-0.64-1.88L19.83,8.57z"/>
	<path class="st0" d="M12.51,3.88c2.52,0,4.84,1.15,6.38,3.14l1.14-0.88c-1.81-2.35-4.55-3.7-7.52-3.7c-1.83,0-3.62,0.52-5.15,1.52
		l0.78,1.2C9.45,4.33,10.96,3.88,12.51,3.88z"/>
	<path class="st0" d="M12.51,6.88c2.96,0,5.34,2.57,5.02,5.59c-0.24,2.27-2.05,4.14-4.31,4.45c-0.78,0.1-1.55,0.04-2.27-0.2
		l-0.44,1.36c0.95,0.31,1.96,0.39,2.98,0.25c2.88-0.42,5.16-2.81,5.47-5.7c0.41-3.89-2.64-7.19-6.44-7.19
		c-2.72,0-5.17,1.72-6.1,4.28l1.35,0.49C8.49,8.22,10.39,6.88,12.51,6.88z"/>
	<path class="st0" d="M8.15,14.46c-0.41-0.7-0.63-1.49-0.67-2.3H6.04c0.04,1.06,0.33,2.1,0.87,3.02L8.15,14.46z"/>
	<path class="st0" d="M13.16,15.16c1.3-0.25,2.34-1.29,2.59-2.59c0.44-2.32-1.56-4.32-3.88-3.88c-1.29,0.25-2.34,1.29-2.59,2.59
		C8.84,13.6,10.84,15.6,13.16,15.16z M10.72,12.43c-0.02-0.07-0.01-0.13-0.03-0.19c-0.02-0.1-0.04-0.21-0.04-0.31
		c0-0.11,0.02-0.21,0.04-0.31c0.13-0.77,0.73-1.37,1.51-1.51c0.1-0.02,0.2-0.04,0.31-0.04c0.1,0,0.21,0.02,0.32,0.04
		c0.06,0.01,0.12,0.01,0.19,0.02c0.62,0.16,1.12,0.67,1.29,1.29c0.02,0.07,0.01,0.13,0.02,0.19c0.02,0.1,0.04,0.21,0.04,0.31
		c0,0.11-0.02,0.21-0.04,0.31c-0.13,0.77-0.73,1.37-1.5,1.5c-0.1,0.02-0.21,0.04-0.31,0.04c-0.1,0-0.21-0.02-0.32-0.04
		c-0.06-0.01-0.13-0.01-0.19-0.02C11.39,13.56,10.89,13.05,10.72,12.43z"/>
</g>
</svg>
