<?xml version="1.0" encoding="utf-8"?>
<!-- Generator: Adobe Illustrator 23.1.1, SVG Export Plug-In . SVG Version: 6.00 Build 0)  -->
<svg version="1.1" id="Layer_1" xmlns="http://www.w3.org/2000/svg" xmlns:xlink="http://www.w3.org/1999/xlink" x="0px" y="0px"
	 viewBox="0 0 93.81 23.86" style="enable-background:new 0 0 93.81 23.86;" xml:space="preserve">
<style type="text/css">
	.st0{fill:#FFFFFF;}
</style>
<g>
	<g>
		<path class="st0" d="M11.88,17.02c-1.14,0-2.11,0.65-2.62,1.58c-0.67-0.26-1.3-0.63-1.85-1.07c0.15-0.25,0.28-0.51,0.36-0.79
			c0.21-0.77,0.1-1.57-0.3-2.26C6.9,13.49,5.86,12.97,4.79,13c-0.05-0.35-0.09-0.71-0.09-1.07c0-0.36,0.04-0.71,0.09-1.06
			c0.03,0,0.06,0.01,0.09,0.01c1.03,0,2.03-0.53,2.59-1.49c0.57-0.98,0.5-2.15-0.06-3.05c0.56-0.45,1.18-0.81,1.86-1.07
			c0.5,0.94,1.48,1.58,2.62,1.58c1.13,0,2.11-0.64,2.61-1.58c0.67,0.26,1.29,0.62,1.85,1.07c-0.15,0.24-0.28,0.51-0.36,0.79
			c-0.21,0.77-0.1,1.57,0.3,2.26c0.4,0.69,1.04,1.18,1.81,1.39c0.26,0.07,0.52,0.1,0.78,0.1c0.52,0,1.03-0.14,1.49-0.4
			c1.42-0.82,1.91-2.65,1.09-4.07c-0.76-1.31-2.36-1.82-3.72-1.25c-0.86-0.74-1.84-1.3-2.91-1.68c-0.19-1.46-1.43-2.6-2.94-2.6
			c-1.51,0-2.75,1.13-2.94,2.59C7.86,3.84,6.87,4.42,6.02,5.15c-0.6-0.25-1.26-0.31-1.9-0.14C3.35,5.22,2.71,5.71,2.31,6.4
			c-0.4,0.69-0.5,1.49-0.3,2.26c0.17,0.64,0.55,1.18,1.06,1.58c-0.1,0.55-0.16,1.11-0.16,1.69c0,0.58,0.06,1.14,0.16,1.69
			c-0.52,0.4-0.89,0.94-1.06,1.58c-0.21,0.77-0.1,1.57,0.3,2.26c0.4,0.69,1.04,1.18,1.81,1.39c0.26,0.07,0.52,0.1,0.78,0.1
			c0.39,0,0.78-0.08,1.14-0.23c0.85,0.73,1.83,1.3,2.91,1.68c0.19,1.46,1.43,2.59,2.94,2.59c1.64,0,2.98-1.34,2.98-2.98
			C14.86,18.36,13.52,17.02,11.88,17.02z M18.28,6.87c0.19-0.11,0.39-0.16,0.59-0.16c0.41,0,0.81,0.21,1.03,0.59
			c0.33,0.57,0.13,1.29-0.43,1.62c-0.27,0.16-0.59,0.2-0.9,0.12C18.26,8.95,18,8.76,17.84,8.49c-0.16-0.27-0.2-0.59-0.12-0.9
			C17.81,7.28,18,7.03,18.28,6.87z M11.88,2.67c0.65,0,1.18,0.53,1.18,1.18s-0.53,1.18-1.18,1.18c-0.65,0-1.18-0.53-1.18-1.18
			S11.23,2.67,11.88,2.67z M3.86,7.3c0.16-0.27,0.41-0.47,0.72-0.55c0.1-0.03,0.21-0.04,0.31-0.04c0.2,0,0.41,0.05,0.59,0.16v0
			C6.04,7.2,6.24,7.92,5.91,8.49C5.59,9.05,4.86,9.24,4.3,8.92C4.02,8.76,3.83,8.51,3.75,8.2C3.66,7.89,3.71,7.58,3.86,7.3z
			 M6.03,16.27c-0.08,0.31-0.28,0.56-0.55,0.72c-0.27,0.16-0.59,0.2-0.9,0.12c-0.31-0.08-0.56-0.28-0.72-0.55
			c-0.33-0.57-0.13-1.29,0.43-1.62c0.57-0.33,1.29-0.13,1.62,0.43C6.07,15.65,6.11,15.97,6.03,16.27z M11.88,21.18
			c-0.65,0-1.18-0.53-1.18-1.18c0-0.65,0.53-1.18,1.18-1.18c0.65,0,1.18,0.53,1.18,1.18C13.06,20.65,12.53,21.18,11.88,21.18z"/>
		<path class="st0" d="M20.36,13.38c-0.69-0.4-1.49-0.5-2.26-0.3c-0.77,0.21-1.41,0.7-1.81,1.39c-0.4,0.69-0.5,1.49-0.3,2.26
			c0.21,0.77,0.7,1.41,1.39,1.81c0.46,0.27,0.97,0.4,1.49,0.4c0.26,0,0.52-0.03,0.78-0.1c0.77-0.21,1.41-0.7,1.81-1.39
			C22.27,16.03,21.78,14.21,20.36,13.38z M19.89,16.56c-0.33,0.57-1.05,0.76-1.62,0.43c-0.27-0.16-0.47-0.41-0.55-0.72
			c-0.08-0.3-0.04-0.62,0.12-0.9c0.22-0.38,0.62-0.59,1.03-0.59c0.2,0,0.4,0.05,0.59,0.16C20.03,15.27,20.22,15.99,19.89,16.56z"/>
	</g>
	<g>
		<path class="st0" d="M86.55,17.27c-2.95,0-5.36-2.4-5.36-5.36s2.4-5.36,5.36-5.36s5.36,2.4,5.36,5.36S89.5,17.27,86.55,17.27z
			 M86.55,8.68c-1.78,0-3.22,1.45-3.22,3.22s1.45,3.22,3.22,3.22s3.22-1.45,3.22-3.22S88.33,8.68,86.55,8.68z"/>
	</g>
	<g>
		<path class="st0" d="M32.58,17.27c-2.95,0-5.36-2.4-5.36-5.36s2.4-5.36,5.36-5.36s5.36,2.4,5.36,5.36S35.53,17.27,32.58,17.27z
			 M32.58,8.68c-1.78,0-3.22,1.45-3.22,3.22s1.45,3.22,3.22,3.22c1.78,0,3.22-1.45,3.22-3.22S34.35,8.68,32.58,8.68z"/>
	</g>
	<g>
		<rect x="65.66" y="6.55" class="st0" width="2.13" height="10.71"/>
	</g>
	<path class="st0" d="M75.28,15.13c-1.78,0-3.22-1.45-3.22-3.22s1.45-3.22,3.22-3.22c0.89,0,1.69,0.36,2.28,0.95l1.51-1.51
		c-0.97-0.97-2.31-1.57-3.79-1.57c-2.95,0-5.36,2.4-5.36,5.36s2.4,5.36,5.36,5.36c1.48,0,2.82-0.6,3.79-1.57l-1.51-1.51
		C76.97,14.77,76.17,15.13,75.28,15.13z"/>
	<polygon class="st0" points="63.61,6.55 62.1,6.55 58.25,10.4 54.41,6.55 52.9,6.55 52.9,8.06 56.74,11.91 52.9,15.76 52.9,17.26 
		54.41,17.26 58.25,13.42 62.1,17.26 63.61,17.26 63.61,15.76 59.76,11.91 63.61,8.06 	"/>
	<polygon class="st0" points="50.84,15.02 50.77,14.96 50.77,6.55 48.64,6.55 48.64,13.19 42.19,7.85 42.19,6.55 40.06,6.55 
		40.06,8.71 39.99,8.79 40.06,8.85 40.06,17.26 42.19,17.26 42.19,10.62 48.64,15.97 48.64,17.26 50.77,17.26 50.77,15.1 	"/>
</g>
</svg>
