<?xml version="1.0" encoding="utf-8"?>
<!-- Generator: Adobe Illustrator 23.1.1, SVG Export Plug-In . SVG Version: 6.00 Build 0)  -->
<svg version="1.1" id="Layer_1" xmlns="http://www.w3.org/2000/svg" xmlns:xlink="http://www.w3.org/1999/xlink" x="0px" y="0px"
	 viewBox="0 0 93.81 23.86" style="enable-background:new 0 0 93.81 23.86;" xml:space="preserve">
<style type="text/css">
	.st0{fill:#007BFF;}
	.st1{fill:#A9B7D0;}
</style>
<g>
	<g>
		<g>
			<g>
				<path class="st0" d="M35.29,11.93c0-0.65,0.11-1.23,0.32-1.76c0.22-0.52,0.52-0.97,0.91-1.34c0.39-0.37,0.85-0.65,1.38-0.85
					c0.53-0.2,1.11-0.3,1.75-0.3c0.63,0,1.21,0.1,1.75,0.3c0.53,0.2,0.99,0.48,1.38,0.85c0.39,0.37,0.69,0.82,0.91,1.34
					C43.9,10.7,44,11.28,44,11.93c0,0.65-0.11,1.23-0.32,1.76c-0.22,0.52-0.52,0.97-0.91,1.34c-0.39,0.37-0.85,0.65-1.38,0.85
					c-0.53,0.2-1.11,0.3-1.75,0.3c-0.63,0-1.21-0.1-1.75-0.3c-0.53-0.2-0.99-0.48-1.38-0.85c-0.39-0.37-0.69-0.82-0.91-1.34
					C35.4,13.16,35.29,12.58,35.29,11.93z M37.14,11.93c0,0.38,0.06,0.73,0.18,1.04c0.12,0.32,0.29,0.59,0.51,0.82
					c0.22,0.23,0.48,0.41,0.79,0.54c0.31,0.13,0.65,0.19,1.03,0.19s0.72-0.06,1.03-0.19c0.31-0.13,0.57-0.31,0.79-0.54
					c0.22-0.23,0.39-0.51,0.51-0.82c0.12-0.32,0.18-0.66,0.18-1.04c0-0.37-0.06-0.72-0.18-1.04c-0.12-0.32-0.29-0.59-0.51-0.83
					s-0.48-0.41-0.79-0.54c-0.31-0.13-0.65-0.19-1.03-0.19s-0.72,0.06-1.03,0.19c-0.31,0.13-0.57,0.31-0.79,0.54
					c-0.22,0.23-0.39,0.51-0.51,0.83C37.2,11.21,37.14,11.56,37.14,11.93z"/>
				<path class="st0" d="M45.21,7.89h2.42l3.43,5.61h0.02V7.89h1.78v8.08h-2.33l-3.52-5.75h-0.02v5.75h-1.78V7.89z"/>
				<path class="st0" d="M56.52,11.75l-2.67-3.86h2.24l1.72,2.83l1.65-2.83h2.15L59,11.71l2.92,4.25h-2.24l-1.97-3.25l-1.92,3.25
					h-2.11L56.52,11.75z"/>
				<path class="st0" d="M62.72,7.89h1.78v8.08h-1.78V7.89z"/>
				<path class="st0" d="M71.4,9.99c-0.17-0.21-0.39-0.38-0.64-0.49c-0.26-0.11-0.55-0.17-0.88-0.17c-0.33,0-0.64,0.06-0.93,0.19
					c-0.28,0.13-0.53,0.31-0.74,0.54c-0.21,0.23-0.37,0.51-0.49,0.83c-0.12,0.32-0.18,0.67-0.18,1.04c0,0.38,0.06,0.73,0.18,1.04
					c0.12,0.32,0.28,0.59,0.48,0.82c0.21,0.23,0.45,0.41,0.72,0.54c0.28,0.13,0.58,0.19,0.9,0.19c0.36,0,0.69-0.08,0.97-0.23
					c0.28-0.15,0.51-0.37,0.7-0.64l1.48,1.11c-0.34,0.48-0.78,0.83-1.3,1.06c-0.53,0.23-1.06,0.34-1.62,0.34
					c-0.63,0-1.21-0.1-1.75-0.3c-0.53-0.2-0.99-0.48-1.38-0.85c-0.39-0.37-0.69-0.82-0.91-1.34c-0.22-0.52-0.32-1.11-0.32-1.76
					c0-0.65,0.11-1.23,0.32-1.76c0.22-0.52,0.52-0.97,0.91-1.34c0.39-0.37,0.85-0.65,1.38-0.85c0.53-0.2,1.11-0.3,1.75-0.3
					c0.23,0,0.47,0.02,0.71,0.06c0.25,0.04,0.49,0.11,0.73,0.2s0.47,0.21,0.69,0.37c0.22,0.15,0.42,0.34,0.59,0.56L71.4,9.99z"/>
				<path class="st0" d="M73.5,11.93c0-0.65,0.11-1.23,0.32-1.76c0.22-0.52,0.52-0.97,0.91-1.34c0.39-0.37,0.85-0.65,1.38-0.85
					c0.53-0.2,1.11-0.3,1.75-0.3s1.21,0.1,1.75,0.3c0.53,0.2,0.99,0.48,1.38,0.85c0.39,0.37,0.69,0.82,0.91,1.34
					c0.22,0.52,0.32,1.11,0.32,1.76c0,0.65-0.11,1.23-0.32,1.76c-0.22,0.52-0.52,0.97-0.91,1.34c-0.39,0.37-0.85,0.65-1.38,0.85
					c-0.53,0.2-1.11,0.3-1.75,0.3s-1.21-0.1-1.75-0.3c-0.53-0.2-0.99-0.48-1.38-0.85c-0.39-0.37-0.69-0.82-0.91-1.34
					C73.61,13.16,73.5,12.58,73.5,11.93z M75.35,11.93c0,0.38,0.06,0.73,0.18,1.04c0.12,0.32,0.29,0.59,0.51,0.82
					c0.22,0.23,0.48,0.41,0.79,0.54c0.31,0.13,0.65,0.19,1.03,0.19c0.38,0,0.72-0.06,1.03-0.19c0.31-0.13,0.57-0.31,0.79-0.54
					c0.22-0.23,0.39-0.51,0.51-0.82c0.12-0.32,0.18-0.66,0.18-1.04c0-0.37-0.06-0.72-0.18-1.04c-0.12-0.32-0.29-0.59-0.51-0.83
					c-0.22-0.23-0.48-0.41-0.79-0.54c-0.31-0.13-0.65-0.19-1.03-0.19c-0.38,0-0.72,0.06-1.03,0.19c-0.31,0.13-0.57,0.31-0.79,0.54
					c-0.22,0.23-0.39,0.51-0.51,0.83C75.41,11.21,75.35,11.56,75.35,11.93z"/>
			</g>
			<g>
				<g>
					<path class="st1" d="M21.57,17.02c-1.14,0-2.11,0.65-2.62,1.58c-0.67-0.26-1.3-0.63-1.85-1.07c0.15-0.25,0.28-0.51,0.36-0.79
						c0.21-0.77,0.1-1.57-0.3-2.26c-0.57-0.98-1.61-1.51-2.68-1.47c-0.05-0.35-0.09-0.71-0.09-1.07c0-0.36,0.04-0.71,0.09-1.06
						c0.03,0,0.06,0.01,0.09,0.01c1.03,0,2.03-0.53,2.59-1.49c0.57-0.98,0.5-2.15-0.06-3.05c0.56-0.45,1.18-0.81,1.86-1.07
						c0.5,0.94,1.48,1.58,2.62,1.58c1.13,0,2.11-0.64,2.61-1.58c0.67,0.26,1.29,0.62,1.85,1.07c-0.15,0.24-0.28,0.51-0.36,0.79
						c-0.21,0.77-0.1,1.57,0.3,2.26c0.4,0.69,1.04,1.18,1.81,1.39c0.26,0.07,0.52,0.1,0.78,0.1c0.52,0,1.03-0.14,1.49-0.4
						c1.42-0.82,1.91-2.65,1.09-4.07c-0.76-1.31-2.36-1.82-3.72-1.25c-0.86-0.74-1.84-1.3-2.91-1.68c-0.19-1.46-1.43-2.6-2.94-2.6
						c-1.51,0-2.75,1.13-2.94,2.59c-1.08,0.38-2.07,0.95-2.92,1.69c-0.6-0.25-1.26-0.31-1.9-0.14C13.04,5.22,12.39,5.71,12,6.4
						c-0.4,0.69-0.5,1.49-0.3,2.26c0.17,0.64,0.55,1.18,1.06,1.58c-0.1,0.55-0.16,1.11-0.16,1.69c0,0.58,0.06,1.14,0.16,1.69
						c-0.52,0.4-0.89,0.94-1.06,1.58c-0.21,0.77-0.1,1.57,0.3,2.26c0.4,0.69,1.04,1.18,1.81,1.39c0.26,0.07,0.52,0.1,0.78,0.1
						c0.39,0,0.78-0.08,1.14-0.23c0.85,0.73,1.83,1.3,2.91,1.68c0.19,1.46,1.43,2.59,2.94,2.59c1.64,0,2.98-1.34,2.98-2.98
						C24.55,18.36,23.21,17.02,21.57,17.02z M27.97,6.87c0.19-0.11,0.39-0.16,0.59-0.16c0.41,0,0.81,0.21,1.03,0.59
						c0.33,0.57,0.13,1.29-0.43,1.62c-0.27,0.16-0.59,0.2-0.9,0.12c-0.31-0.08-0.56-0.28-0.72-0.55c-0.16-0.27-0.2-0.59-0.12-0.9
						C27.5,7.28,27.69,7.03,27.97,6.87z M21.57,2.68c0.65,0,1.18,0.53,1.18,1.18s-0.53,1.18-1.18,1.18c-0.65,0-1.18-0.53-1.18-1.18
						S20.92,2.68,21.57,2.68z M13.55,7.3c0.16-0.27,0.41-0.47,0.72-0.55c0.1-0.03,0.21-0.04,0.31-0.04c0.2,0,0.41,0.05,0.59,0.16v0
						c0.57,0.33,0.76,1.05,0.43,1.62c-0.33,0.57-1.05,0.76-1.62,0.43c-0.27-0.16-0.47-0.41-0.55-0.72C13.35,7.9,13.4,7.58,13.55,7.3
						z M15.72,16.27c-0.08,0.31-0.28,0.56-0.55,0.72c-0.27,0.16-0.59,0.2-0.9,0.12c-0.31-0.08-0.56-0.28-0.72-0.55
						c-0.33-0.57-0.13-1.29,0.43-1.62c0.57-0.33,1.29-0.13,1.62,0.43C15.76,15.65,15.8,15.97,15.72,16.27z M21.57,21.19
						c-0.65,0-1.18-0.53-1.18-1.18c0-0.65,0.53-1.18,1.18-1.18c0.65,0,1.18,0.53,1.18,1.18C22.75,20.65,22.22,21.19,21.57,21.19z"/>
					<path class="st1" d="M30.05,13.38c-0.69-0.4-1.49-0.5-2.26-0.3c-0.77,0.21-1.41,0.7-1.81,1.39c-0.4,0.69-0.5,1.49-0.3,2.26
						c0.21,0.77,0.7,1.41,1.39,1.81c0.46,0.27,0.97,0.4,1.49,0.4c0.26,0,0.52-0.03,0.78-0.1c0.77-0.21,1.41-0.7,1.81-1.39
						C31.96,16.03,31.47,14.21,30.05,13.38z M29.58,16.56c-0.33,0.57-1.05,0.76-1.62,0.43c-0.27-0.16-0.47-0.41-0.55-0.72
						c-0.08-0.3-0.04-0.62,0.12-0.9c0.22-0.38,0.62-0.59,1.03-0.59c0.2,0,0.4,0.05,0.59,0.16C29.72,15.27,29.91,15.99,29.58,16.56z"
						/>
				</g>
			</g>
		</g>
	</g>
</g>
</svg>
