<?xml version="1.0" encoding="utf-8"?>
<!-- Generator: Adobe Illustrator 23.1.1, SVG Export Plug-In . SVG Version: 6.00 Build 0)  -->
<svg version="1.1" id="Layer_1" xmlns="http://www.w3.org/2000/svg" xmlns:xlink="http://www.w3.org/1999/xlink" x="0px" y="0px"
	 viewBox="0 0 24.81 23.86" style="enable-background:new 0 0 24.81 23.86;" xml:space="preserve">
<style type="text/css">
	.st0{fill:#FFB778;}
</style>
<g>
	<g>
		<path class="st0" d="M12.41,17.02c-1.14,0-2.11,0.65-2.62,1.58c-0.67-0.26-1.3-0.63-1.85-1.07c0.15-0.25,0.28-0.51,0.36-0.79
			c0.21-0.77,0.1-1.57-0.3-2.26C7.43,13.49,6.38,12.97,5.32,13c-0.05-0.35-0.09-0.71-0.09-1.07c0-0.36,0.04-0.71,0.09-1.06
			c0.03,0,0.06,0.01,0.09,0.01c1.03,0,2.03-0.53,2.59-1.49C8.57,8.4,8.5,7.23,7.94,6.33c0.56-0.45,1.18-0.81,1.86-1.07
			c0.5,0.94,1.48,1.58,2.62,1.58c1.13,0,2.11-0.64,2.61-1.58c0.67,0.26,1.29,0.62,1.85,1.07c-0.15,0.24-0.28,0.51-0.36,0.79
			c-0.21,0.77-0.1,1.57,0.3,2.26c0.4,0.69,1.04,1.18,1.81,1.39c0.26,0.07,0.52,0.1,0.78,0.1c0.52,0,1.03-0.14,1.49-0.4
			c1.42-0.82,1.91-2.65,1.09-4.07c-0.76-1.31-2.36-1.82-3.72-1.25c-0.86-0.74-1.84-1.3-2.91-1.68c-0.19-1.46-1.43-2.6-2.94-2.6
			c-1.51,0-2.75,1.13-2.94,2.59C8.39,3.84,7.4,4.42,6.55,5.15c-0.6-0.25-1.26-0.31-1.9-0.14C3.88,5.22,3.23,5.71,2.84,6.4
			c-0.4,0.69-0.5,1.49-0.3,2.26C2.71,9.3,3.09,9.85,3.6,10.24c-0.1,0.55-0.16,1.11-0.16,1.69c0,0.58,0.06,1.14,0.16,1.69
			c-0.52,0.4-0.89,0.94-1.06,1.58c-0.21,0.77-0.1,1.57,0.3,2.26c0.4,0.69,1.04,1.18,1.81,1.39c0.26,0.07,0.52,0.1,0.78,0.1
			c0.39,0,0.78-0.08,1.14-0.23c0.85,0.73,1.83,1.3,2.91,1.68c0.19,1.46,1.43,2.59,2.94,2.59c1.64,0,2.98-1.34,2.98-2.98
			C15.39,18.36,14.05,17.02,12.41,17.02z M18.81,6.87c0.19-0.11,0.39-0.16,0.59-0.16c0.41,0,0.81,0.21,1.03,0.59
			c0.33,0.57,0.13,1.29-0.43,1.62c-0.27,0.16-0.59,0.2-0.9,0.12c-0.31-0.08-0.56-0.28-0.72-0.55c-0.16-0.27-0.2-0.59-0.12-0.9
			C18.34,7.28,18.53,7.03,18.81,6.87z M12.41,2.67c0.65,0,1.18,0.53,1.18,1.18s-0.53,1.18-1.18,1.18c-0.65,0-1.18-0.53-1.18-1.18
			S11.75,2.67,12.41,2.67z M4.39,7.3c0.16-0.27,0.41-0.47,0.72-0.55c0.1-0.03,0.21-0.04,0.31-0.04c0.2,0,0.41,0.05,0.59,0.16v0
			C6.57,7.2,6.77,7.92,6.44,8.49C6.12,9.05,5.39,9.24,4.83,8.92C4.55,8.76,4.36,8.51,4.27,8.2C4.19,7.89,4.23,7.58,4.39,7.3z
			 M6.56,16.27c-0.08,0.31-0.28,0.56-0.55,0.72c-0.27,0.16-0.59,0.2-0.9,0.12c-0.31-0.08-0.56-0.28-0.72-0.55
			c-0.33-0.57-0.13-1.29,0.43-1.62c0.57-0.33,1.29-0.13,1.62,0.43C6.6,15.65,6.64,15.97,6.56,16.27z M12.41,21.18
			c-0.65,0-1.18-0.53-1.18-1.18c0-0.65,0.53-1.18,1.18-1.18c0.65,0,1.18,0.53,1.18,1.18C13.59,20.65,13.06,21.18,12.41,21.18z"/>
		<path class="st0" d="M20.89,13.38c-0.69-0.4-1.49-0.5-2.26-0.3c-0.77,0.21-1.41,0.7-1.81,1.39c-0.4,0.69-0.5,1.49-0.3,2.26
			c0.21,0.77,0.7,1.41,1.39,1.81c0.46,0.27,0.97,0.4,1.49,0.4c0.26,0,0.52-0.03,0.78-0.1c0.77-0.21,1.41-0.7,1.81-1.39
			C22.8,16.03,22.31,14.21,20.89,13.38z M20.42,16.56c-0.33,0.57-1.05,0.76-1.62,0.43c-0.27-0.16-0.47-0.41-0.55-0.72
			c-0.08-0.3-0.04-0.62,0.12-0.9c0.22-0.38,0.62-0.59,1.03-0.59c0.2,0,0.4,0.05,0.59,0.16C20.55,15.27,20.75,15.99,20.42,16.56z"/>
	</g>
</g>
</svg>
