<?xml version="1.0" encoding="utf-8"?>
<!-- Generator: Adobe Illustrator 23.1.1, SVG Export Plug-In . SVG Version: 6.00 Build 0)  -->
<svg version="1.1" id="Layer_1" xmlns="http://www.w3.org/2000/svg" xmlns:xlink="http://www.w3.org/1999/xlink" x="0px" y="0px"
	 viewBox="0 0 93.81 23.86" style="enable-background:new 0 0 93.81 23.86;" xml:space="preserve">
<style type="text/css">
	.st0{fill:#FED56F;}
	.st1{fill:#FFFFFF;}
</style>
<g>
	<path class="st0" d="M20.45,14.06c-0.12,0.02-0.25,0.05-0.37,0.05C20.21,14.11,20.33,14.08,20.45,14.06z"/>
	<path class="st0" d="M22.22,11.56c-0.01-0.08-0.01-0.15-0.03-0.23c-0.19-0.73-0.78-1.32-1.51-1.51c-0.07-0.02-0.15-0.02-0.22-0.03
		C21.36,9.96,22.06,10.66,22.22,11.56z"/>
	<path class="st0" d="M22.26,11.93c0,0.12-0.03,0.24-0.05,0.37C22.24,12.18,22.26,12.06,22.26,11.93z"/>
	<path class="st0" d="M17.95,12.29c0.01,0.08,0.01,0.15,0.03,0.23c0.19,0.73,0.78,1.32,1.51,1.51c0.08,0.02,0.15,0.02,0.22,0.03
		C18.81,13.9,18.11,13.2,17.95,12.29z"/>
	<path class="st0" d="M17.9,11.93c0-0.12,0.03-0.24,0.05-0.36C17.93,11.69,17.9,11.8,17.9,11.93z"/>
	<path class="st0" d="M19.72,9.8c0.12-0.02,0.25-0.05,0.37-0.05C19.96,9.75,19.84,9.78,19.72,9.8z"/>
	<g>
		<path class="st1" d="M40.36,6.46c-3.02,0-5.56,2.19-5.56,5.58c0,3.38,2.55,5.56,5.56,5.56c3,0,5.55-2.19,5.55-5.56
			C45.9,8.65,43.36,6.46,40.36,6.46z M40.36,15.25c-1.49,0-3.09-1-3.09-3.23c0-2.23,1.6-3.24,3.09-3.24c1.48,0,3.08,1.01,3.08,3.24
			C43.43,14.26,41.83,15.25,40.36,15.25z"/>
		<path class="st1" d="M51.77,9.69c-0.77,0-1.69,0.35-2.1,1.06V9.89h-2.22v7.49h2.29v-4.3c0-0.75,0.48-1.31,1.24-1.31
			c0.83,0,1.22,0.56,1.22,1.3v4.31h2.29v-4.7C54.5,11.03,53.65,9.69,51.77,9.69z"/>
		<path class="st1" d="M63.5,9.89h-2.56l-1.31,2.05l-1.34-2.05h-2.7l2.62,3.75l-2.58,3.74h2.52c0.41-0.62,0.97-1.51,1.37-2.11
			l1.39,2.11h2.68c-0.86-1.21-1.84-2.62-2.68-3.83L63.5,9.89z"/>
		<path class="st1" d="M65.88,6.25c-0.72,0-1.33,0.6-1.33,1.34s0.6,1.34,1.33,1.34c0.75,0,1.36-0.6,1.36-1.34S66.63,6.25,65.88,6.25
			z"/>
		<rect x="64.75" y="9.89" class="st1" width="2.29" height="7.49"/>
		<path class="st1" d="M72.53,15.5c-0.95,0-1.75-0.66-1.75-1.85c0-1.21,0.77-1.87,1.72-1.87c0.89,0,1.34,0.54,1.51,1.12l2.05-0.62
			c-0.33-1.34-1.54-2.61-3.6-2.61c-2.2,0-3.95,1.64-3.95,3.98c0,2.32,1.8,3.97,4.03,3.97c2.01,0,3.24-1.3,3.57-2.61l-2.02-0.62
			C73.92,14.94,73.42,15.5,72.53,15.5z"/>
		<path class="st1" d="M80.87,9.66c-2.23,0-3.98,1.64-3.98,3.97c0,2.32,1.75,3.98,3.98,3.98c2.25,0,3.98-1.66,3.98-3.98
			C84.85,11.3,83.12,9.66,80.87,9.66z M80.87,15.5c-0.86,0-1.69-0.62-1.69-1.87c0-1.27,0.83-1.85,1.69-1.85
			c0.87,0,1.69,0.59,1.69,1.85C82.56,14.89,81.74,15.5,80.87,15.5z"/>
	</g>
	<path class="st0" d="M20.08,21.38c-5.12,0-9.29-4.09-9.44-9.17H8.96c0.15,6.01,5.08,10.86,11.12,10.86c3.33,0,6.46-1.47,8.58-4.04
		l-1.3-1.08C25.57,20.13,22.91,21.38,20.08,21.38z"/>
	<path class="st0" d="M28.5,16.24l1.5,0.77c0.39-0.75,0.68-1.55,0.89-2.36l-1.64-0.41C29.08,14.92,28.83,15.6,28.5,16.24z"/>
	<path class="st0" d="M28.67,7.98c0.28,0.6,0.49,1.23,0.63,1.88l1.65-0.37c-0.17-0.76-0.42-1.5-0.75-2.21L28.67,7.98z"/>
	<path class="st0" d="M20.08,2.48c2.96,0,5.69,1.34,7.49,3.69l1.34-1.03c-2.13-2.76-5.35-4.35-8.83-4.35
		c-2.15,0-4.25,0.62-6.05,1.78l0.92,1.41C16.48,3,18.26,2.48,20.08,2.48z"/>
	<path class="st0" d="M20.08,6c3.48,0,6.27,3.01,5.89,6.57c-0.28,2.67-2.41,4.87-5.07,5.23c-0.91,0.12-1.82,0.04-2.66-0.23
		l-0.52,1.6c1.12,0.36,2.31,0.46,3.5,0.29c3.39-0.49,6.06-3.3,6.43-6.7c0.49-4.57-3.1-8.44-7.57-8.44c-3.2,0-6.07,2.02-7.16,5.02
		l1.59,0.57C15.36,7.58,17.6,6,20.08,6z"/>
	<path class="st0" d="M14.96,14.91c-0.48-0.82-0.74-1.75-0.78-2.7h-1.69c0.05,1.25,0.39,2.47,1.02,3.55L14.96,14.91z"/>
	<path class="st0" d="M20.84,15.73c1.52-0.29,2.75-1.52,3.04-3.04c0.52-2.72-1.83-5.07-4.55-4.55c-1.52,0.29-2.75,1.52-3.04,3.04
		C15.77,13.89,18.12,16.25,20.84,15.73z M17.98,12.52c-0.02-0.08-0.02-0.15-0.03-0.23c-0.02-0.12-0.05-0.25-0.05-0.36
		c0-0.13,0.03-0.24,0.05-0.36c0.16-0.91,0.86-1.61,1.77-1.77c0.12-0.02,0.24-0.05,0.37-0.05c0.12,0,0.25,0.03,0.37,0.05
		c0.07,0.01,0.15,0.01,0.22,0.03c0.73,0.19,1.32,0.78,1.51,1.51c0.02,0.08,0.02,0.15,0.03,0.23c0.02,0.12,0.05,0.25,0.05,0.37
		c0,0.13-0.03,0.25-0.05,0.37c-0.16,0.91-0.86,1.61-1.77,1.77c-0.12,0.02-0.24,0.05-0.37,0.05c-0.12,0-0.25-0.03-0.37-0.05
		c-0.07-0.01-0.15-0.01-0.22-0.03C18.76,13.84,18.17,13.25,17.98,12.52z"/>
</g>
</svg>
